<?xml version="1.0" encoding="utf-8" ?><svg xmlns="http://www.w3.org/2000/svg" xmlns:xlink="http://www.w3.org/1999/xlink" width="1024" height="271" viewBox="0 0 1024 271"><path d="M519.767 113.178C541.826 109.679 562.563 124.668 566.159 146.711C569.756 168.753 554.859 189.557 532.832 193.251C510.667 196.969 489.704 181.958 486.084 159.776C482.465 137.595 497.57 116.698 519.767 113.178ZM529.837 172.155C548.375 165.926 546.963 132.627 523.378 134.058C503.315 139.115 505.379 175.368 529.837 172.155Z"/><path d="M866.692 113.189C888.758 109.646 909.534 124.618 913.153 146.672C916.773 168.726 901.873 189.553 879.832 193.25C857.682 196.964 836.73 181.975 833.092 159.812C829.455 137.65 844.517 116.749 866.692 113.189ZM876.837 172.155C895.373 165.926 893.969 132.624 870.368 134.058C850.26 139.208 852.427 175.365 876.837 172.155Z"/><path d="M373.165 94.2473C381.49 94.1905 389.814 94.2232 398.138 94.3454C395.86 101.304 393.433 108.213 390.86 115.068C389.039 121.581 384.266 133.84 381.862 140.623L363.652 192.027C353.67 192.088 343.687 192.077 333.705 191.994C325.711 166.259 314.406 139.352 306.101 113.522C305.206 110.738 299.845 96.7355 299.757 95.1632C300.765 94.0425 300.996 94.3713 302.853 94.2524C310.124 94.1538 317.396 94.1941 324.665 94.3735C326.118 100.186 329.426 108.714 331.327 114.845C336.781 132.44 343.497 150.424 348.646 168.046C351.51 160.383 354.286 151.215 356.873 143.372L373.165 94.2473Z"/><path d="M703.009 113.668C718.346 111.849 735.068 116.181 740.553 132.525C741.316 134.8 741.832 137.445 742.36 139.8C735.263 139.968 727.799 139.881 720.673 139.907C719.629 137.392 718.779 135.277 716.558 133.588C713.885 131.592 710.528 130.739 707.227 131.218C704.106 131.675 698.956 134.878 700.227 138.06C702.887 144.715 717.175 145.237 723.231 147.754C727.445 149.505 730.53 150.182 734.217 152.942C743.576 158.787 744.79 172.779 738.914 181.563C733.953 188.979 725.043 191.529 716.426 192.985C697.055 193.557 679.128 188.544 675.396 166.523C683.019 166.372 691.031 166.499 698.684 166.503C701.589 175.454 711.629 178.91 719.07 172.057C719.68 171.496 720.34 169.399 720.025 168.628C716.886 160.945 703.708 161.402 696.903 158.655C692.267 156.934 689.158 156.167 685.204 153.21C681.088 150.183 678.984 146.095 678.27 141.096C675.94 124.784 688.182 115.664 703.009 113.668Z"/><path fill="#5A62E5" d="M231.685 77.7116C239.001 77.3648 254.521 76.1546 260.365 80.5161C268.246 86.3981 267.855 113.754 262.209 120.877C256.665 127.871 243.116 124.862 234.942 125.798C223.628 127.094 217.475 132.288 210.456 140.786C206.707 146.193 205.539 149.196 203.11 155.4C199.422 146.567 196.929 143.678 187.668 140.803C191.551 139.59 195.337 138.726 199.045 136.971C230.83 121.933 209.787 95.8614 220.757 82.602C223.434 79.3664 227.667 78.0959 231.685 77.7116Z"/><path fill="#5A62E5" d="M101.64 77.6286C105.895 77.2986 122.215 77.1967 125.934 78.1631C144.554 83.0027 130.223 110.73 139.523 124.334C146.196 134.095 155.325 138.189 166.118 140.927C164.777 141.296 163.454 141.73 162.155 142.228C155.889 144.645 153.888 147.592 151.317 153.354L151.064 153.65C149.864 153.697 149.353 151.311 148.562 149.716C144.196 140.918 139.614 135.563 131.569 130.114C118.038 120.949 105.65 129.616 93.2775 122.897C90.814 121.422 88.2651 116.076 88.384 113.367C88.9979 99.3796 82.6309 80.3515 101.64 77.6286Z"/><path d="M449.598 89.0824C457.356 88.8616 465.607 89.0172 473.404 89.0444L473.369 192.016C465.443 192.061 457.516 192.055 449.589 191.998L449.598 89.0824Z"/><path d="M624.914 113.668C625.667 113.559 626.465 113.634 627.231 113.67C628.303 114.892 627.725 135.629 627.685 138.841C602.509 138.929 603.259 144.209 603.356 167.648C603.43 175.772 603.422 183.896 603.333 192.02C595.418 192.059 587.504 192.052 579.589 191.998L579.55 183.25C579.543 160.526 579.222 137.013 579.668 114.351C587.004 113.977 596.011 114.218 603.377 114.352L603.451 126.94C609.724 118.983 614.567 115.197 624.914 113.668Z"/><path fill="#0D0C2B" d="M163.663 145.061C169.586 144.693 187.039 144.315 192.477 146.097C194.95 147.041 199.048 152.231 199.23 154.703C200.22 168.164 204.815 187.36 188.692 192.493C165.319 193.48 150.714 196.673 152.845 166.17C153.504 156.737 152.303 149.191 163.663 145.061Z"/><path d="M410.454 114.242C417.762 114.182 425.07 114.221 432.376 114.357L432.404 169.614C432.405 172.637 432.67 189.752 432.135 191.642L431.114 192.039L408.59 191.998C408.547 185.125 408.237 115.775 408.984 114.493L410.454 114.242Z"/><path d="M798.455 114.243C805.762 114.183 813.07 114.221 820.376 114.358L820.404 169.614C820.405 172.636 820.67 189.754 820.135 191.642L819.114 192.04L796.588 191.998C796.554 185.102 796.232 115.783 796.984 114.494L798.455 114.243Z"/><path d="M640.455 114.242C647.762 114.182 655.07 114.22 662.376 114.357L662.404 169.614C662.404 172.635 662.669 189.755 662.135 191.642L661.114 192.039L638.589 191.998C638.55 185.059 638.249 115.766 638.984 114.494L640.455 114.242Z"/><path d="M648.545 80.5808C655.12 79.9727 661.765 82.9798 663.934 89.5541C664.971 92.671 664.721 96.0732 663.238 99.0044C661.122 103.121 657.837 104.738 653.644 106.057C649.402 106.436 645.748 106.186 642.09 103.795C639.284 101.999 637.319 99.1486 636.638 95.8869C635.954 92.6662 636.581 89.3057 638.382 86.5491C640.913 82.7501 644.306 81.4262 648.545 80.5808Z"/><path d="M806.541 80.5809C813.118 79.9734 819.764 82.9779 821.934 89.5539C822.972 92.6708 822.721 96.0732 821.238 99.0045C819.122 103.121 815.837 104.738 811.644 106.057C807.402 106.436 803.748 106.186 800.09 103.795C797.284 101.999 795.319 99.1485 794.638 95.8869C793.954 92.6663 794.581 89.3057 796.382 86.5492C798.912 82.7516 802.305 81.428 806.541 80.5809Z"/><path d="M418.548 80.5801C425.121 79.9717 431.766 82.9826 433.933 89.5543C434.971 92.6712 434.72 96.0733 433.237 99.0046C431.121 103.121 427.836 104.737 423.644 106.057C419.403 106.436 415.748 106.186 412.091 103.795C409.286 101.997 407.321 99.1468 406.641 95.885C405.957 92.6645 406.584 89.3042 408.383 86.5472C410.912 82.7483 414.311 81.4252 418.548 80.5801Z"/><path d="M764.525 167.627C771.666 166.861 778.781 168.155 781.849 175.565C783.092 178.543 783.097 181.893 781.864 184.874C780.055 189.196 776.721 191.019 772.641 192.689C765.728 193.608 758.304 191.864 755.454 184.743C754.223 181.698 754.259 178.288 755.553 175.27C757.366 171.061 760.499 169.229 764.525 167.627Z"/></svg>